<svg xmlns="http://www.w3.org/2000/svg" xmlns:xlink="http://www.w3.org/1999/xlink" width="1024" zoomAndPan="magnify" viewBox="0 0 768 767.999994" height="1024" preserveAspectRatio="xMidYMid meet" version="1.0"><defs><clipPath id="17d476a5cf"><path d="M 136 43.011719 L 632.433594 43.011719 L 632.433594 724.761719 L 136 724.761719 Z M 136 43.011719 " clip-rule="nonzero"/></clipPath><clipPath id="2159dcab7b"><path d="M 136 538 L 632.433594 538 L 632.433594 724.761719 L 136 724.761719 Z M 136 538 " clip-rule="nonzero"/></clipPath></defs><g clip-path="url(#17d476a5cf)"><path fill="#000000" d="M 632.359375 74 C 632.359375 56.886719 618.472656 43.011719 601.335938 43.011719 L 229.070312 43.011719 C 177.671875 43.011719 136.003906 84.636719 136.003906 135.980469 L 136.003906 631.796875 C 136.003906 683.140625 177.671875 724.761719 229.070312 724.761719 L 601.335938 724.761719 C 618.472656 724.761719 632.359375 710.890625 632.359375 693.773438 Z M 570.316406 104.992188 L 570.316406 662.785156 L 229.070312 662.785156 C 211.9375 662.785156 198.046875 648.910156 198.046875 631.796875 L 198.046875 135.980469 C 198.046875 118.863281 211.9375 104.992188 229.070312 104.992188 Z M 570.316406 104.992188 " fill-opacity="1" fill-rule="evenodd"/></g><g clip-path="url(#2159dcab7b)"><path fill="#000000" d="M 632.359375 569.820312 C 632.359375 552.703125 618.472656 538.832031 601.335938 538.832031 L 229.070312 538.832031 C 177.671875 538.832031 136.003906 580.453125 136.003906 631.796875 C 136.003906 683.140625 177.671875 724.761719 229.070312 724.761719 L 601.335938 724.761719 C 618.472656 724.761719 632.359375 710.890625 632.359375 693.773438 Z M 570.316406 600.808594 L 570.316406 662.785156 L 229.070312 662.785156 C 211.9375 662.785156 198.046875 648.910156 198.046875 631.796875 C 198.046875 614.683594 211.9375 600.808594 229.070312 600.808594 Z M 570.316406 600.808594 " fill-opacity="1" fill-rule="evenodd"/></g><path fill="#000000" d="M 539.292969 166.96875 C 539.292969 149.851562 525.402344 135.980469 508.269531 135.980469 L 260.09375 135.980469 C 242.960938 135.980469 229.070312 149.851562 229.070312 166.96875 L 229.070312 290.921875 C 229.070312 308.035156 242.960938 321.910156 260.09375 321.910156 L 508.269531 321.910156 C 525.402344 321.910156 539.292969 308.035156 539.292969 290.921875 Z M 477.25 197.957031 L 477.25 259.933594 L 291.117188 259.933594 L 291.117188 197.957031 Z M 477.25 197.957031 " fill-opacity="1" fill-rule="evenodd"/></svg>