<svg xmlns="http://www.w3.org/2000/svg" xmlns:xlink="http://www.w3.org/1999/xlink" width="730" zoomAndPan="magnify" viewBox="0 0 547.5 165.000002" height="220" preserveAspectRatio="xMidYMid meet" version="1.0"><defs><g/><clipPath id="947a22ff89"><path d="M 1.402344 0 L 545.601562 0 L 545.601562 164.007812 L 1.402344 164.007812 Z M 1.402344 0 " clip-rule="nonzero"/></clipPath><clipPath id="41701ebc29"><path d="M 197.324219 55.855469 L 238.363281 55.855469 L 238.363281 111.816406 L 197.324219 111.816406 Z M 197.324219 55.855469 " clip-rule="nonzero"/></clipPath><clipPath id="b03f262122"><path d="M 197.324219 96 L 238.363281 96 L 238.363281 111.816406 L 197.324219 111.816406 Z M 197.324219 96 " clip-rule="nonzero"/></clipPath></defs><g clip-path="url(#947a22ff89)"><path fill="#ffffff" d="M 1.402344 0 L 546.097656 0 L 546.097656 335.773438 L 1.402344 335.773438 Z M 1.402344 0 " fill-opacity="1" fill-rule="nonzero"/><path fill="#ffffff" d="M 1.402344 0 L 546.097656 0 L 546.097656 164.15625 L 1.402344 164.15625 Z M 1.402344 0 " fill-opacity="1" fill-rule="nonzero"/><path fill="#1f2d3b" d="M 1.402344 0 L 546.097656 0 L 546.097656 164.15625 L 1.402344 164.15625 Z M 1.402344 0 " fill-opacity="1" fill-rule="nonzero"/></g><g clip-path="url(#41701ebc29)"><path fill="#ffffff" d="M 238.355469 58.398438 C 238.355469 56.992188 237.210938 55.855469 235.792969 55.855469 L 205.023438 55.855469 C 200.777344 55.855469 197.332031 59.269531 197.332031 63.484375 L 197.332031 104.183594 C 197.332031 108.398438 200.777344 111.816406 205.023438 111.816406 L 235.792969 111.816406 C 237.210938 111.816406 238.355469 110.679688 238.355469 109.273438 Z M 233.230469 60.941406 L 233.230469 106.730469 L 205.023438 106.730469 C 203.609375 106.730469 202.460938 105.589844 202.460938 104.183594 L 202.460938 63.484375 C 202.460938 62.082031 203.609375 60.941406 205.023438 60.941406 Z M 233.230469 60.941406 " fill-opacity="1" fill-rule="evenodd"/></g><g clip-path="url(#b03f262122)"><path fill="#ffffff" d="M 238.355469 99.097656 C 238.355469 97.691406 237.210938 96.554688 235.792969 96.554688 L 205.023438 96.554688 C 200.777344 96.554688 197.332031 99.972656 197.332031 104.183594 C 197.332031 108.398438 200.777344 111.816406 205.023438 111.816406 L 235.792969 111.816406 C 237.210938 111.816406 238.355469 110.679688 238.355469 109.273438 Z M 233.230469 101.640625 L 233.230469 106.730469 L 205.023438 106.730469 C 203.609375 106.730469 202.460938 105.589844 202.460938 104.183594 C 202.460938 102.78125 203.609375 101.640625 205.023438 101.640625 Z M 233.230469 101.640625 " fill-opacity="1" fill-rule="evenodd"/></g><path fill="#ffffff" d="M 230.664062 66.03125 C 230.664062 64.625 229.515625 63.484375 228.101562 63.484375 L 207.589844 63.484375 C 206.171875 63.484375 205.023438 64.625 205.023438 66.03125 L 205.023438 76.203125 C 205.023438 77.609375 206.171875 78.75 207.589844 78.75 L 228.101562 78.75 C 229.515625 78.75 230.664062 77.609375 230.664062 76.203125 Z M 225.535156 68.574219 L 225.535156 73.660156 L 210.152344 73.660156 L 210.152344 68.574219 Z M 225.535156 68.574219 " fill-opacity="1" fill-rule="evenodd"/><g fill="#ffffff" fill-opacity="1"><g transform="translate(242.443336, 105.289563)"><g><path d="M 14.070312 -20.15625 C 15.546875 -20.15625 16.730469 -21.339844 16.730469 -22.816406 C 16.730469 -24.296875 15.546875 -25.480469 14.070312 -25.480469 C 12.589844 -25.480469 11.410156 -24.296875 11.410156 -22.816406 C 11.410156 -21.339844 12.589844 -20.15625 14.070312 -20.15625 Z M 16.3125 -17.042969 L 4.503906 -17.042969 C 4.191406 -17.042969 3.984375 -16.835938 3.984375 -16.523438 L 3.984375 -13.582031 C 3.984375 -13.269531 4.191406 -13.0625 4.503906 -13.0625 L 11.929688 -13.0625 L 11.929688 -1.410156 C 11.929688 1.652344 10.46875 2.503906 8.382812 2.503906 C 6.921875 2.503906 5.878906 1.964844 5.042969 1.320312 C 4.695312 1.042969 4.296875 1.007812 4.085938 1.320312 L 2.589844 3.582031 C 2.070312 4.367188 5.027344 6.644531 8.746094 6.644531 C 12.574219 6.644531 16.835938 5.007812 16.835938 -0.714844 L 16.835938 -16.523438 C 16.835938 -16.835938 16.625 -17.042969 16.3125 -17.042969 Z M 16.3125 -17.042969 "/></g></g></g><g fill="#ffffff" fill-opacity="1"><g transform="translate(263.83373, 105.289563)"><g><path d="M 12.15625 -17.425781 C 9.878906 -17.425781 8.574219 -16.347656 7.636719 -15.007812 L 7.253906 -15.007812 L 7.253906 -23.828125 C 7.253906 -24.140625 7.042969 -24.347656 6.730469 -24.347656 L 2.871094 -24.347656 C 2.554688 -24.347656 2.347656 -24.140625 2.347656 -23.828125 L 2.347656 -0.523438 C 2.347656 -0.207031 2.554688 0 2.871094 0 L 6.367188 0 C 6.679688 0 6.851562 -0.207031 6.886719 -0.523438 L 6.992188 -1.757812 C 8.207031 -0.453125 9.894531 0.453125 12.15625 0.453125 C 16.972656 0.453125 19.808594 -3.53125 19.808594 -8.488281 C 19.808594 -13.445312 16.957031 -17.425781 12.15625 -17.425781 Z M 11.078125 -4.015625 C 8.589844 -4.015625 7.269531 -5.808594 7.269531 -8.523438 C 7.269531 -11.234375 8.589844 -12.957031 11.078125 -12.957031 C 13.792969 -12.957031 15.078125 -11.234375 15.078125 -8.523438 C 15.078125 -5.808594 13.792969 -4.015625 11.078125 -4.015625 Z M 11.078125 -4.015625 "/></g></g></g><g fill="#ffffff" fill-opacity="1"><g transform="translate(285.224124, 105.289563)"><g><path d="M 10.695312 0.453125 C 15.667969 0.453125 19.496094 -3.445312 19.496094 -8.488281 C 19.496094 -13.53125 15.667969 -17.425781 10.695312 -17.425781 C 5.722656 -17.425781 1.894531 -13.53125 1.894531 -8.488281 C 1.894531 -3.445312 5.722656 0.453125 10.695312 0.453125 Z M 10.695312 -4.085938 C 8.367188 -4.085938 6.625 -5.894531 6.625 -8.488281 C 6.625 -11.078125 8.367188 -12.886719 10.695312 -12.886719 C 13.027344 -12.886719 14.765625 -11.078125 14.765625 -8.488281 C 14.765625 -5.894531 13.027344 -4.085938 10.695312 -4.085938 Z M 10.695312 -4.085938 "/></g></g></g><g fill="#ffffff" fill-opacity="1"><g transform="translate(306.614518, 105.289563)"><g><path d="M 10.695312 0.453125 C 15.667969 0.453125 19.496094 -3.445312 19.496094 -8.488281 C 19.496094 -13.53125 15.667969 -17.425781 10.695312 -17.425781 C 5.722656 -17.425781 1.894531 -13.53125 1.894531 -8.488281 C 1.894531 -3.445312 5.722656 0.453125 10.695312 0.453125 Z M 10.695312 -4.085938 C 8.367188 -4.085938 6.625 -5.894531 6.625 -8.488281 C 6.625 -11.078125 8.367188 -12.886719 10.695312 -12.886719 C 13.027344 -12.886719 14.765625 -11.078125 14.765625 -8.488281 C 14.765625 -5.894531 13.027344 -4.085938 10.695312 -4.085938 Z M 10.695312 -4.085938 "/></g></g></g><g fill="#ffffff" fill-opacity="1"><g transform="translate(328.004912, 105.289563)"><g><path d="M 19.667969 -0.625 L 12.417969 -9.738281 L 18.660156 -16.417969 C 18.972656 -16.730469 18.835938 -17.042969 18.382812 -17.042969 L 13.84375 -17.042969 C 13.601562 -17.042969 13.390625 -16.972656 13.21875 -16.765625 L 7.53125 -10.488281 L 7.53125 -24.871094 C 7.53125 -25.183594 7.320312 -25.390625 7.007812 -25.390625 L 3.148438 -25.390625 C 2.835938 -25.390625 2.625 -25.183594 2.625 -24.871094 L 2.625 -0.523438 C 2.625 -0.207031 2.835938 0 3.148438 0 L 7.007812 0 C 7.320312 0 7.53125 -0.207031 7.53125 -0.523438 L 7.53125 -4.503906 L 9.460938 -6.554688 L 14.488281 -0.3125 C 14.660156 -0.0703125 14.835938 0 15.113281 0 L 19.355469 0 C 19.773438 0 19.949219 -0.277344 19.667969 -0.625 Z M 19.667969 -0.625 "/></g></g></g></svg>