<svg xmlns="http://www.w3.org/2000/svg" xmlns:xlink="http://www.w3.org/1999/xlink" width="1024" zoomAndPan="magnify" viewBox="0 0 768 767.999994" height="1024" preserveAspectRatio="xMidYMid meet" version="1.0"><defs><g/><clipPath id="a5c19afa81"><path d="M 26.449219 261.3125 L 216.949219 261.3125 L 216.949219 523.8125 L 26.449219 523.8125 Z M 26.449219 261.3125 " clip-rule="nonzero"/></clipPath><clipPath id="a9bc73a1de"><path d="M 26.449219 452 L 216.949219 452 L 216.949219 523.8125 L 26.449219 523.8125 Z M 26.449219 452 " clip-rule="nonzero"/></clipPath></defs><g clip-path="url(#a5c19afa81)"><path fill="#ffffff" d="M 216.917969 273.246094 C 216.917969 266.65625 211.589844 261.3125 205.015625 261.3125 L 62.1875 261.3125 C 42.46875 261.3125 26.480469 277.339844 26.480469 297.109375 L 26.480469 488.019531 C 26.480469 507.789062 42.46875 523.8125 62.1875 523.8125 L 205.015625 523.8125 C 211.589844 523.8125 216.917969 518.472656 216.917969 511.882812 Z M 193.113281 285.175781 L 193.113281 499.949219 L 62.1875 499.949219 C 55.613281 499.949219 50.285156 494.609375 50.285156 488.019531 L 50.285156 297.109375 C 50.285156 290.519531 55.613281 285.175781 62.1875 285.175781 Z M 193.113281 285.175781 " fill-opacity="1" fill-rule="evenodd"/></g><g clip-path="url(#a9bc73a1de)"><path fill="#ffffff" d="M 216.917969 464.15625 C 216.917969 457.566406 211.589844 452.222656 205.015625 452.222656 L 62.1875 452.222656 C 42.46875 452.222656 26.480469 468.25 26.480469 488.019531 C 26.480469 507.789062 42.46875 523.8125 62.1875 523.8125 L 205.015625 523.8125 C 211.589844 523.8125 216.917969 518.472656 216.917969 511.882812 Z M 193.113281 476.085938 L 193.113281 499.949219 L 62.1875 499.949219 C 55.613281 499.949219 50.285156 494.609375 50.285156 488.019531 C 50.285156 481.429688 55.613281 476.085938 62.1875 476.085938 Z M 193.113281 476.085938 " fill-opacity="1" fill-rule="evenodd"/></g><path fill="#ffffff" d="M 181.210938 309.042969 C 181.210938 302.453125 175.882812 297.109375 169.308594 297.109375 L 74.089844 297.109375 C 67.515625 297.109375 62.1875 302.453125 62.1875 309.042969 L 62.1875 356.769531 C 62.1875 363.359375 67.515625 368.699219 74.089844 368.699219 L 169.308594 368.699219 C 175.882812 368.699219 181.210938 363.359375 181.210938 356.769531 Z M 157.40625 320.972656 L 157.40625 344.835938 L 85.992188 344.835938 L 85.992188 320.972656 Z M 157.40625 320.972656 " fill-opacity="1" fill-rule="evenodd"/><g fill="#ffffff" fill-opacity="1"><g transform="translate(237.532438, 492.595401)"><g><path d="M 65.824219 -94.304688 C 72.742188 -94.304688 78.273438 -99.835938 78.273438 -106.753906 C 78.273438 -113.667969 72.742188 -119.203125 65.824219 -119.203125 C 58.910156 -119.203125 53.375 -113.667969 53.375 -106.753906 C 53.375 -99.835938 58.910156 -94.304688 65.824219 -94.304688 Z M 76.320312 -79.738281 L 21.074219 -79.738281 C 19.609375 -79.738281 18.632812 -78.761719 18.632812 -77.296875 L 18.632812 -63.546875 C 18.632812 -62.082031 19.609375 -61.105469 21.074219 -61.105469 L 55.816406 -61.105469 L 55.816406 -6.589844 C 55.816406 7.730469 48.984375 11.714844 39.21875 11.714844 C 32.382812 11.714844 27.5 9.195312 23.597656 6.183594 C 21.96875 4.882812 20.097656 4.71875 19.121094 6.183594 L 12.125 16.761719 C 9.683594 20.421875 23.515625 31.082031 40.925781 31.082031 C 58.828125 31.082031 78.761719 23.433594 78.761719 -3.335938 L 78.761719 -77.296875 C 78.761719 -78.761719 77.785156 -79.738281 76.320312 -79.738281 Z M 76.320312 -79.738281 "/></g></g></g><g fill="#ffffff" fill-opacity="1"><g transform="translate(337.607026, 492.595401)"><g><path d="M 56.875 -81.527344 C 46.214844 -81.527344 40.113281 -76.484375 35.71875 -70.21875 L 33.929688 -70.21875 L 33.929688 -111.472656 C 33.929688 -112.9375 32.953125 -113.914062 31.488281 -113.914062 L 13.425781 -113.914062 C 11.960938 -113.914062 10.984375 -112.9375 10.984375 -111.472656 L 10.984375 -2.441406 C 10.984375 -0.976562 11.960938 0 13.425781 0 L 29.78125 0 C 31.246094 0 32.058594 -0.976562 32.222656 -2.441406 L 32.710938 -8.21875 C 38.40625 -2.117188 46.296875 2.117188 56.875 2.117188 C 79.414062 2.117188 92.675781 -16.515625 92.675781 -39.707031 C 92.675781 -62.894531 79.332031 -81.527344 56.875 -81.527344 Z M 51.832031 -18.796875 C 40.195312 -18.796875 34.011719 -27.175781 34.011719 -39.871094 C 34.011719 -52.5625 40.195312 -60.617188 51.832031 -60.617188 C 64.523438 -60.617188 70.542969 -52.5625 70.542969 -39.871094 C 70.542969 -27.175781 64.523438 -18.796875 51.832031 -18.796875 Z M 51.832031 -18.796875 "/></g></g></g><g fill="#ffffff" fill-opacity="1"><g transform="translate(437.681614, 492.595401)"><g><path d="M 50.039062 2.117188 C 73.3125 2.117188 91.210938 -16.109375 91.210938 -39.707031 C 91.210938 -63.304688 73.3125 -81.527344 50.039062 -81.527344 C 26.769531 -81.527344 8.867188 -63.304688 8.867188 -39.707031 C 8.867188 -16.109375 26.769531 2.117188 50.039062 2.117188 Z M 50.039062 -19.121094 C 39.136719 -19.121094 31 -27.582031 31 -39.707031 C 31 -51.832031 39.136719 -60.292969 50.039062 -60.292969 C 60.945312 -60.292969 69.078125 -51.832031 69.078125 -39.707031 C 69.078125 -27.582031 60.945312 -19.121094 50.039062 -19.121094 Z M 50.039062 -19.121094 "/></g></g></g><g fill="#ffffff" fill-opacity="1"><g transform="translate(537.756202, 492.595401)"><g><path d="M 50.039062 2.117188 C 73.3125 2.117188 91.210938 -16.109375 91.210938 -39.707031 C 91.210938 -63.304688 73.3125 -81.527344 50.039062 -81.527344 C 26.769531 -81.527344 8.867188 -63.304688 8.867188 -39.707031 C 8.867188 -16.109375 26.769531 2.117188 50.039062 2.117188 Z M 50.039062 -19.121094 C 39.136719 -19.121094 31 -27.582031 31 -39.707031 C 31 -51.832031 39.136719 -60.292969 50.039062 -60.292969 C 60.945312 -60.292969 69.078125 -51.832031 69.078125 -39.707031 C 69.078125 -27.582031 60.945312 -19.121094 50.039062 -19.121094 Z M 50.039062 -19.121094 "/></g></g></g><g fill="#ffffff" fill-opacity="1"><g transform="translate(637.830789, 492.595401)"><g><path d="M 92.023438 -2.929688 L 58.09375 -45.566406 L 87.304688 -76.808594 C 88.769531 -78.273438 88.121094 -79.738281 86.003906 -79.738281 L 64.769531 -79.738281 C 63.628906 -79.738281 62.652344 -79.414062 61.839844 -78.4375 L 35.230469 -49.0625 L 35.230469 -116.355469 C 35.230469 -117.820312 34.253906 -118.792969 32.789062 -118.792969 L 14.726562 -118.792969 C 13.261719 -118.792969 12.285156 -117.820312 12.285156 -116.355469 L 12.285156 -2.441406 C 12.285156 -0.976562 13.261719 0 14.726562 0 L 32.789062 0 C 34.253906 0 35.230469 -0.976562 35.230469 -2.441406 L 35.230469 -21.074219 L 44.261719 -30.675781 L 67.777344 -1.464844 C 68.59375 -0.324219 69.40625 0 70.707031 0 L 90.5625 0 C 92.511719 0 93.328125 -1.300781 92.023438 -2.929688 Z M 92.023438 -2.929688 "/></g></g></g></svg>